<?xml version="1.0" encoding="utf-8"?>
<!-- Generator: Adobe Illustrator 24.2.0, SVG Export Plug-In . SVG Version: 6.00 Build 0)  -->
<svg version="1.1" id="Layer_1"
	xmlns="http://www.w3.org/2000/svg"
	xmlns:xlink="http://www.w3.org/1999/xlink" x="0px" y="0px" viewBox="0 0 32 32" style="enable-background:new 0 0 32 32;" xml:space="preserve">
	<style type="text/css">
	.st7{filter:url(#Adobe_OpacityMaskFilter);}
	</style>
	<defs>
		<filter id="Adobe_OpacityMaskFilter" filterUnits="userSpaceOnUse" x="0.87" y="0.87" width="30.25" height="30.25">
			<feColorMatrix type="matrix" values="-1 0 0 0 1  0 -1 0 0 1  0 0 -1 0 1  0 0 0 1 0" color-interpolation-filters="sRGB" result="source"/>
			<feFlood style="flood-color:white;flood-opacity:1" result="back"/>
			<feBlend in="source" in2="back" mode="normal"/>
		</filter>
		<linearGradient id="SVGID_2_" gradientUnits="userSpaceOnUse" x1="0.8727" y1="16" x2="31.1273" y2="16">
			<stop offset="0" style="stop-color:#F6A31D"/>
			<stop offset="1" style="stop-color:#B31F81"/>
		</linearGradient>
	</defs>
	<mask maskUnits="userSpaceOnUse" x="0.87" y="0.87" width="30.25" height="30.25" id="SVGID_1_">
		<g class="st7">
			<path fill="white" d="
			M23.19,
			23.16c1.84-3.49,
			0.3-5.25,
			0.3-5.25c0.35-2.19-0.51-3.33-0.51-3.33l1.02-1.25l-1.06,
			0.24
			c1.72-1.72,
			1.84-4.66,
			1.84-4.66c-2.35,
			2.43-6.07,
			2.52-6.07,
			2.52l0.16-0.56C17.68,
			11.56,
			16,
			11.4,
			16,
			11.4s-1.68,
			0.16-2.86-0.55
			l0.16,
			0.56c0,
			0-3.72-0.09-6.07-2.52c0,
			0,
			0.12,
			2.94,
			1.84,
			4.66l-1.06-0.24l1.02,
			1.25c0,
			0-0.86,
			1.14-0.51,
			3.33
			c0,
			0-1.55,
			1.76,
			0.3,
			5.25c0,
			0-5.19,
			7.72,
			7.19,
			16.18C28.38,
			30.87,
			23.19,
			23.16,
			23.19,
			23.16z M13.61,
			17.93
			"/>
		</g>
	</mask>

	<circle style="fill:url(#SVGID_2_);" cx="16" cy="16" r="15.13"/>
	<circle style="mask:url(#SVGID_1_);" cx="16" cy="16" r="15.13"/>
</svg>
