<svg xmlns="http://www.w3.org/2000/svg" xml:space="preserve" id="Layer_1" x="0" y="0" style="enable-background:new 0 0 32 32" version="1.1" viewBox="0 0 32 32">
	<style>.st0{fill:url(#SVGID_1_)}.st1{fill:url(#SVGID_2_)}.st2{fill:url(#SVGID_3_)}.st3{fill:url(#SVGID_4_)}.st4{fill:url(#SVGID_5_)}.st5{fill:url(#SVGID_6_)}.st6{fill:url(#SVGID_7_)}.st9{mask:url(#SVGID_8_);fill:url(#SVGID_9_)}.st10{filter:url(#Adobe_OpacityMaskFilter_1_)}.st11{mask:url(#SVGID_10_);fill:#fff}.st12{filter:url(#Adobe_OpacityMaskFilter_2_)}.st13{mask:url(#SVGID_11_)}.st14{filter:url(#Adobe_OpacityMaskFilter_3_)}.st15{mask:url(#SVGID_12_);fill:url(#SVGID_13_)}.st16{filter:url(#Adobe_OpacityMaskFilter_4_)}.st17{mask:url(#SVGID_14_);fill:url(#SVGID_15_)}.st18{filter:url(#Adobe_OpacityMaskFilter_5_)}.st19{mask:url(#SVGID_16_);fill:url(#SVGID_17_)}.st20{filter:url(#Adobe_OpacityMaskFilter_6_)}.st21{mask:url(#SVGID_18_);fill:url(#SVGID_19_)}.st22{filter:url(#Adobe_OpacityMaskFilter_7_)}.st23{mask:url(#SVGID_20_);fill:url(#SVGID_21_)}</style>
	<defs>
		<filter id="Adobe_OpacityMaskFilter" width="30.25" height="30.25" x=".87" y=".87" filterUnits="userSpaceOnUse">
			<feColorMatrix color-interpolation-filters="sRGB" result="source" values="-1 0 0 0 1 0 -1 0 0 1 0 0 -1 0 1 0 0 0 1 0"/>
			<feFlood result="back" style="flood-color:white;flood-opacity:1"/>
			<feBlend in="source" in2="back"/>
		</filter>
	</defs>
	<mask id="SVGID_1_" width="30.25" height="30.25" x=".87" y=".87" maskUnits="userSpaceOnUse">
		<g style="filter:url(#Adobe_OpacityMaskFilter)">
			<path d="M23.19 23.16c1.84-3.49.3-5.25.3-5.25.35-2.19-.51-3.33-.51-3.33L24 13.33l-1.06.24c1.72-1.72 1.84-4.66 1.84-4.66-2.35 2.43-6.07 2.52-6.07 2.52l.16-.56c-1.19.69-2.87.53-2.87.53s-1.68.16-2.86-.55l.16.56s-3.72-.09-6.07-2.52c0 0 .12 2.94 1.84 4.66l-1.06-.24 1.02 1.25s-.86 1.14-.51 3.33c0 0-1.55 1.76.3 5.25 0 0-5.19 7.72 7.19 16.18 12.37-8.45 7.18-16.16 7.18-16.16zm-9.58-5.23c-.93 0-1.68-.75-1.68-1.68 0-.27.07-.53.18-.76.33.03.65.1.94.23-.13.14-.21.32-.21.53 0 .43.34.77.77.77.27 0 .51-.14.65-.36.2.25.36.54.47.85-.3.26-.69.42-1.12.42zM16 20.92l-.9-2.59.9-.74.9.74-.9 2.59zm2.39-2.99c-.43 0-.82-.16-1.12-.43.11-.31.27-.59.47-.85.14.22.38.36.65.36.43 0 .77-.34.77-.77 0-.21-.08-.39-.21-.53.29-.13.61-.2.94-.23.12.23.18.49.18.76 0 .94-.75 1.69-1.68 1.69z" style="fill:#fff"/>
		</g>
	</mask>
	<linearGradient id="SVGID_2_" x1=".8727" x2="31.1273" y1="16" y2="16" gradientUnits="userSpaceOnUse">
		<stop offset="0" style="stop-color:#f6a31d"/>
		<stop offset="1" style="stop-color:#b31f81"/>
	</linearGradient>
	<circle cx="16" cy="16" r="15.13" style="mask:url(#SVGID_1_);fill:url(#SVGID_2_)"/>
</svg>